<svg width="20" height="20" viewBox="0 0 20 20" fill="none" xmlns="http://www.w3.org/2000/svg"><path d="M11.667 9.167h-5M8.333 12.5H6.667m6.666-6.667H6.667m10 4.167V5.667c0-1.4 0-2.1-.273-2.635a2.5 2.5 0 0 0-1.092-1.093c-.535-.272-1.235-.272-2.635-.272H7.333c-1.4 0-2.1 0-2.635.272a2.5 2.5 0 0 0-1.092 1.093c-.273.534-.273 1.235-.273 2.635v8.666c0 1.4 0 2.1.273 2.635a2.5 2.5 0 0 0 1.092 1.093c.535.272 1.235.272 2.635.272H10m3.333-5L17.5 17.5m0-4.167L13.333 17.5" stroke="#fff" stroke-width="1.5" stroke-linecap="round" stroke-linejoin="round"/></svg>