<svg width="20" height="20" viewBox="0 0 20 20" fill="none" xmlns="http://www.w3.org/2000/svg"><g clip-path="url(#a)"><path fill-rule="evenodd" clip-rule="evenodd" d="M10 0C4.478 0 0 4.478 0 10c0 5.523 4.478 10 10 10 5.523 0 10-4.477 10-10 0-5.522-4.477-10-10-10Zm4.635 6.8c-.15 1.582-.802 5.42-1.133 7.19-.14.75-.416 1-.683 1.025-.58.053-1.022-.384-1.584-.753-.88-.576-1.377-.935-2.232-1.499-.987-.65-.347-1.008.215-1.592.148-.153 2.706-2.481 2.756-2.692.006-.026.013-.125-.046-.176-.06-.052-.146-.035-.207-.02-.088.02-1.494.949-4.218 2.787-.4.274-.761.407-1.085.4-.357-.007-1.044-.2-1.555-.368-.626-.203-1.124-.311-1.08-.656.022-.18.27-.364.743-.553a480.655 480.655 0 0 1 5.832-2.512c2.777-1.155 3.354-1.356 3.73-1.363.472-.006.585.383.547.783Z" fill="#fff"/></g><defs><clipPath id="a"><path fill="#fff" d="M0 0h20v20H0z"/></clipPath></defs></svg>