<svg width="95" height="24" viewBox="0 0 95 24" fill="none" xmlns="http://www.w3.org/2000/svg">
<path d="M4.33267 4H6.48754V20H4.33267V8.2188H0V6.1094H4.33267V4ZM12.974 4H15.1289V20H12.974V8.2188H8.64133V6.1094H12.974V4ZM32.4006 4V6.1094H23.7582V11.9888H32.4006V14.0982H23.7582V20H21.6034V4H32.4006ZM32.4006 6.1094H34.5555V11.9888H32.4006V6.1094ZM41.0243 6.1094V4H45.334V6.1094H41.0243ZM41.0243 8.2188H38.8694V6.1094H41.0243V8.2188ZM49.6437 8.2188V20H47.4889V15.1753H38.8694V20H36.7145V8.2188H38.8694V13.0659H47.4889V8.2188H49.6437ZM45.334 8.2188V6.1094H47.4889V8.2188H45.334ZM62.6006 17.8906V20H53.9581V17.8906H62.6006ZM51.8033 4H53.9581V17.8906H51.8033V4ZM71.2528 17.8906V15.7812H73.4077V17.8906H71.2528ZM71.2528 10.3282V15.7812H69.098V10.3282H71.2528ZM69.098 8.2188V10.3282H66.9202V20H64.7653V4H66.9202V8.2188H69.098ZM75.5626 10.3282V15.7812H73.4077V10.3282H75.5626ZM77.7404 8.2188V4H79.8952V20H77.7404V10.3282H75.5626V8.2188H77.7404ZM75.5626 10.3282V8.2188H77.7404V10.3282H75.5626ZM82.0479 17.8906V15.7812H84.2027V17.8906H82.0479ZM92.8451 17.8906V13.0659H95V17.8906H92.8451ZM92.8451 8.2188V6.1094H95V8.2188H92.8451ZM82.0479 10.9565V6.1094H84.2027V10.9565H82.0479ZM84.2027 13.0659V10.9565H92.8451V13.0659H84.2027ZM84.2027 6.1094V4H92.8451V6.1094H84.2027ZM84.2027 20V17.8906H92.8451V20H84.2027Z" fill="white"/>
</svg>
