<svg width="95" height="24" viewBox="0 0 95 24" fill="none" xmlns="http://www.w3.org/2000/svg"><path d="M4.333 4h2.155v16H4.333V8.219H0v-2.11h4.333V4Zm8.641 0h2.155v16h-2.155V8.219H8.641v-2.11h4.333V4Zm19.427 0v2.11h-8.643v5.879h8.643v2.11h-8.643V20h-2.155V4h10.798Zm0 2.11h2.154v5.879h-2.154v-5.88Zm8.623 0V4h4.31v2.11h-4.31Zm0 2.109H38.87v-2.11h2.155v2.11Zm8.62 0V20h-2.155v-4.825h-8.62V20h-2.154V8.219h2.154v4.847h8.62V8.219h2.155Zm-4.31 0v-2.11h2.155v2.11h-2.155Zm17.267 9.672V20h-8.643v-2.11h8.643ZM51.803 4h2.155v13.89h-2.155V4Zm19.45 13.89v-2.109h2.155v2.11h-2.155Zm0-7.562v5.453h-2.155v-5.453h2.155Zm-2.155-2.11v2.11H66.92V20h-2.155V4h2.155v4.219h2.178Zm6.465 2.11v5.453h-2.155v-5.453h2.155Zm2.177-2.11V4h2.155v16H77.74v-9.672h-2.177v-2.11h2.177Zm-2.177 2.11v-2.11h2.177v2.11h-2.177Zm6.485 7.563v-2.11h2.155v2.11h-2.155Zm10.797 0v-4.825H95v4.825h-2.155Zm0-9.672v-2.11H95v2.11h-2.155Zm-10.797 2.738V6.109h2.155v4.848h-2.155Zm2.155 2.109v-2.11h8.642v2.11h-8.642Zm0-6.957V4h8.642v2.11h-8.642Zm0 13.891v-2.11h8.642V20h-8.642Z" fill="#fff"/></svg>