<svg width="50" height="50" viewBox="0 0 50 50" fill="none" xmlns="http://www.w3.org/2000/svg"><path d="M20.821 16.824h5.568c2.617 0 3.855 1.384 3.855 4.449 0 3.114-1.142 4.449-3.855 4.449h-5.568v-8.898Z" fill="#F7F7F7"/><path fill-rule="evenodd" clip-rule="evenodd" d="M3.154 8.781C2 11.046 2 14.011 2 19.941V31.06c0 5.93 0 8.895 1.154 11.16a10.589 10.589 0 0 0 4.627 4.627C10.046 48 13.011 48 18.941 48H30.06c5.93 0 8.895 0 11.16-1.154a10.59 10.59 0 0 0 4.627-4.627C47 39.954 47 36.989 47 31.059V19.94c0-5.93 0-8.895-1.154-11.16a10.589 10.589 0 0 0-4.627-4.627C38.954 3 35.989 3 30.059 3H18.94c-5.93 0-8.895 0-11.16 1.154a10.588 10.588 0 0 0-4.627 4.627Zm12.909 4.039v26.298c0 .247.142.444.428.444h3.902c.286 0 .428-.197.428-.444V30.22h6.234c5.045 0 7.758-3.213 7.758-8.947 0-5.784-2.713-8.898-7.758-8.898H16.491c-.286 0-.428.099-.428.445Z" fill="#F7F7F7"/></svg>